<?xml version="1.0" encoding="UTF-8"?>
<svg xmlns="http://www.w3.org/2000/svg" width="8.5in" height="11in" viewBox="0 0 2550 3300">
  <rect width="2550" height="3300" fill="#ffffff"/>
  <rect x="80" y="80" width="2390" height="8" fill="#000000"/>
  <rect x="80" y="3212" width="2390" height="8" fill="#000000"/>

  <text x="1275" y="220" fill="#000000" font-family="Impact, Haettenschweiler, Arial Black, sans-serif" font-size="118" text-anchor="middle" letter-spacing="4">LEARN TO JUMP.</text>
  <text x="1275" y="360" fill="#000000" font-family="Impact, Haettenschweiler, Arial Black, sans-serif" font-size="148" text-anchor="middle" letter-spacing="6">SEND IT.</text>

  <text x="1275" y="480" fill="#000000" font-family="Arial, Helvetica, sans-serif" font-size="52" font-weight="700" text-anchor="middle" letter-spacing="8">SENDIT AND SONS.CO</text>

  <text x="1275" y="620" fill="#000000" font-family="Arial, Helvetica, sans-serif" font-size="44" font-weight="600" text-anchor="middle">Mobile BMX &amp; mountain bike jump lessons</text>
  <text x="1275" y="690" fill="#333333" font-family="Arial, Helvetica, sans-serif" font-size="38" text-anchor="middle">We bring the portable ramp + air bag to you.</text>
  <text x="1275" y="755" fill="#333333" font-family="Arial, Helvetica, sans-serif" font-size="38" text-anchor="middle">Events · birthday parties · schools &amp; festivals</text>

  <rect x="979" y="1144" width="592" height="592" fill="#ffffff" stroke="#000000" stroke-width="6"/>
  <svg x="1015" y="1180" width="520" height="520" viewBox="0 0 27 27" shape-rendering="crispEdges"><path fill="#ffffff" d="M0 0h27v27H0z"/><path stroke="#000000" d="M1 1.5h7m1 0h1m2 0h1m1 0h1m4 0h7M1 2.5h1m5 0h1m1 0h1m2 0h2m1 0h1m3 0h1m5 0h1M1 3.5h1m1 0h3m1 0h1m1 0h1m4 0h3m2 0h1m1 0h3m1 0h1M1 4.5h1m1 0h3m1 0h1m2 0h1m1 0h1m1 0h1m2 0h1m1 0h1m1 0h3m1 0h1M1 5.5h1m1 0h3m1 0h1m1 0h1m3 0h3m1 0h1m1 0h1m1 0h3m1 0h1M1 6.5h1m5 0h1m6 0h2m1 0h1m1 0h1m5 0h1M1 7.5h7m1 0h1m1 0h1m1 0h1m1 0h1m1 0h1m1 0h7M10 8.5h2m2 0h1m1 0h2M1 9.5h1m2 0h7m1 0h2m1 0h1m1 0h2m2 0h1m1 0h3M1 10.5h3m6 0h1m3 0h3m3 0h5M1 11.5h2m1 0h1m1 0h6m1 0h2m1 0h2m1 0h2m1 0h1m2 0h1M2 12.5h1m1 0h1m1 0h1m1 0h1m1 0h1m1 0h2m3 0h1m1 0h1m2 0h4M3 13.5h3m1 0h1m2 0h1m1 0h2m2 0h2m1 0h1m5 0h1M1 14.5h1m3 0h2m2 0h3m2 0h1m1 0h2m3 0h1m2 0h1M1 15.5h2m1 0h2m1 0h2m1 0h4m2 0h3m2 0h5M1 16.5h1m3 0h2m1 0h2m1 0h2m7 0h1m1 0h2m1 0h1M1 17.5h1m1 0h1m2 0h2m1 0h1m1 0h1m1 0h9m1 0h2M9 18.5h1m1 0h4m1 0h2m3 0h1m1 0h2M1 19.5h7m1 0h1m1 0h2m4 0h1m1 0h1m1 0h1m3 0h1M1 20.5h1m5 0h1m1 0h3m2 0h4m3 0h1m2 0h2M1 21.5h1m1 0h3m1 0h1m1 0h2m1 0h2m1 0h7M1 22.5h1m1 0h3m1 0h1m1 0h2m1 0h1m2 0h5m4 0h2M1 23.5h1m1 0h3m1 0h1m3 0h2m1 0h5m2 0h5M1 24.5h1m5 0h1m7 0h1m3 0h3m1 0h3M1 25.5h7m1 0h1m1 0h1m1 0h1m3 0h3m2 0h1m2 0h1"/></svg>

  <text x="1275" y="1790" fill="#000000" font-family="Arial, Helvetica, sans-serif" font-size="40" font-weight="700" text-anchor="middle" letter-spacing="4">SCAN FOR INFO &amp; BOOKING</text>
  <text x="1275" y="1855" fill="#000000" font-family="Arial, Helvetica, sans-serif" font-size="48" font-weight="700" text-anchor="middle">senditandsons.com</text>

  <line x1="200" y1="1920" x2="2350" y2="1920" stroke="#000000" stroke-width="3"/>

  <text x="1275" y="2010" fill="#000000" font-family="Arial, Helvetica, sans-serif" font-size="56" font-weight="700" text-anchor="middle">336-437-3825</text>
  <text x="1275" y="2080" fill="#333333" font-family="Arial, Helvetica, sans-serif" font-size="36" text-anchor="middle">starzndstripesmedia@gmail.com</text>

  <rect x="180" y="2130" width="2190" height="120" fill="#000000"/>
  <text x="1275" y="2210" fill="#ffffff" font-family="Impact, Arial Black, sans-serif" font-size="52" text-anchor="middle" letter-spacing="2">$30 ON-SPOT RIDES AT EVENTS</text>

  <text x="1275" y="3120" fill="#555555" font-family="Arial, Helvetica, sans-serif" font-size="32" text-anchor="middle">Based in Mebane, NC · Triangle &amp; Triad area</text>
  <text x="1275" y="3180" fill="#555555" font-family="Arial, Helvetica, sans-serif" font-size="28" text-anchor="middle">Helmets &amp; bikes available · Ages 8+ · First-timers welcome</text>
</svg>
